# xmcd CD database file
#
# Track frame offsets:
#	150
#	14140
#	31204
#	36893
#	57233
#	74157
#	86002
#	96085
#	111161
#	131408
#	145398
#
# Disc length: 2162 seconds
#
# Revision: 0
# Processed by: cddbd v1.5.2PL0 Copyright (c) Steve Scherf et al.
# Submitted via: CDex 1.70beta2
#
DISCID=a008700b
DTITLE=Wigwam - Tomstone Valentine
DYEAR=1970
DGENRE=Jazz
TTITLE0=Tombstone Valentine
TTITLE1=In Gratitude!
TTITLE2=Dance Of The Anthropoids
TTITLE3=Frederick and Bill
TTITLE4=Wishful Thinker
TTITLE5=Autograph
TTITLE6=1936 Lost In The Snow
TTITLE7=Let The World Ramble On
TTITLE8=For America
TTITLE9=Captain Supernatural
TTITLE10=End
EXTD=YEAR: 1970
EXTT0=
EXTT1=
EXTT2=
EXTT3=
EXTT4=
EXTT5=
EXTT6=
EXTT7=
EXTT8=
EXTT9=
EXTT10=
PLAYORDER=
